<svg xmlns="http://www.w3.org/2000/svg" viewBox="0 0 512 512" width="512" height="512">
  <style>
    .a{fill:#dbd5d5}.b{fill:#161313}.c{fill:#d1ab86}.d{fill:#ffe2c2}.e{fill:#333030}.f{fill:#0c0a0a}.g{fill:#fff8f8}.h{fill:#ff991f}.i{fill:#ffbd4a}.j{mix-blend-mode:screen;fill:#4d4d4d}.k{fill:#b6c9c9}.l{fill:#877a63}.m{fill:#b1a082}
  </style>
  <!-- White padded background to ensure clean icon edges -->
  <rect width="512" height="512" fill="#ffffff" />
  <g transform="translate(69 31) scale(3.6)">
    <path class="a" d="m62.2 112.4l22.3-35.5-11.7-8.7-28.9 2-10.9 10.4 24.7 34.4q2.2-1.4 4.5-2.6z"/>
    <path class="b" d="m41.5 72.3l-8.3 2.2c0 0-13.1 2-15.5 5.6-4.3 2.7-4.6 36.9-3.7 37 0.8 0.2 40.5 0 40.5 0q2.2-1.5 4.5-2.9z"/>
    <path class="b" d="m76.4 72.3l8.4 2.2c0 0 13 2 15.4 5.6 4.3 2.7 4.2 38.7 3.3 38.8-0.8 0.2-51.6 0-51.6 0-1.4-1 4-3.4 7.1-4.7z"/>
    <path class="c" d="m71.9 74.5h-25.8v-20.3h25.8z"/>
    <path class="d" d="m79.9 39.9c-1.6 15.6-13.4 27.3-20.9 27.3-8 0-19-12-20.9-27.3-1.8-14.9 9.4-22.5 20.9-22.5 11.6 0 22.4 7.5 20.9 22.5z"/>
    <path class="d" d="m39.9 42.4c1.1 3.1 2 6.1 0.7 6.6-1.3 0.4-4.2-1.9-5.3-5-1.1-3.1-0.9-6 0.3-6.5 1.3-0.4 3.3 1.7 4.3 4.9z"/>
    <path class="d" d="m78 42.4c-1.1 3.1-1.9 6.1-0.6 6.6 1.3 0.4 4.2-1.9 5.3-5 1.1-3.1 0.9-6-0.4-6.5-1.3-0.4-3.2 1.7-4.3 4.9z"/>
    <path fill-rule="evenodd" class="e" d="m51.7 48.2c-2.6 0-4.8-2.1-4.8-4.8 0-2.6 2.2-4.7 4.8-4.7 2.6 0 4.7 2.1 4.7 4.7 0 2.7-2.1 4.8-4.7 4.8zm0-8.3c-1.9 0-3.5 1.6-3.5 3.5 0 2 1.6 3.5 3.5 3.5 1.9 0 3.5-1.5 3.5-3.5 0-1.9-1.6-3.5-3.5-3.5z"/>
    <path fill-rule="evenodd" class="e" d="m67.7 48.2c-2.6 0-4.7-2.1-4.7-4.8 0-2.6 2.1-4.7 4.7-4.7 2.6 0 4.8 2.1 4.8 4.7 0 2.7-2.2 4.8-4.8 4.8zm0-8.3c-1.9 0-3.5 1.6-3.5 3.5 0 2 1.6 3.5 3.5 3.5 2 0 3.5-1.5 3.5-3.5 0-1.9-1.5-3.5-3.5-3.5z"/>
    <path class="e" d="m63.4 44c-1.1-0.4-3-1.1-3.7-1.1-0.7 0-2.6 0.7-3.6 1.1l-0.5-1.1c0.3-0.2 2.9-1.3 4.1-1.3 1.2 0 3.8 1.1 4.1 1.3z"/>
    <path class="e" d="m71.9 44.1c-0.2 0-0.4-0.1-0.6-0.3-0.2-0.3-0.1-0.7 0.2-0.9l8.2-5.6c0.3-0.2 0.7-0.2 0.9 0.1 0.2 0.3 0.1 0.7-0.2 0.9l-8.2 5.6q-0.2 0.2-0.3 0.2z"/>
    <path class="e" d="m47.6 44.1q-0.2 0-0.3-0.1l-9.7-5.5c-0.3-0.2-0.4-0.6-0.2-0.9 0.1-0.3 0.5-0.4 0.8-0.2l9.7 5.5c0.3 0.2 0.4 0.5 0.2 0.8-0.1 0.2-0.3 0.4-0.5 0.4z"/>
    <path class="f" d="m65.5 77.8l-6.5 5.5-6.5-5.5 6.5-5.5z"/>
    <path class="f" d="m57.8 82l-3.8 18.7 4.7 15.4 5.9-15.4-4.4-18.7z"/>
    <path class="g" d="m45.1 64.3l13.9 8.1-4.6 9.7-10.8-10.1c0 0-2.8-0.7-1.9-2 1-1.3 3.3-2.4 3.4-5.7z"/>
    <path class="g" d="m72.8 64.3l-13.8 8.1 4.6 9.6 10.8-10c0 0 2.8-0.7 1.9-2-1-1.2-3.3-2.4-3.5-5.7z"/>
    <path class="e" d="m59 114.2l-15.9-45.6-5.3 4.4-5.5 3 6.8 11.3h3.1l-2 6.5z"/>
    <path class="e" d="m59 114.2l15.8-45.6 5.3 4.1 6.1 3.3-7.3 11.3h-3.2l2 6.5z"/>
    <path class="h" d="m83 29.7c0-10.3-4.7-19.3-11.7-24.3-3.6-2.5-7.8-2.3-12.3-2.3-4.5 0-8.7-0.2-12.3 2.3-6.9 5-11.6 14-11.6 24.3q0 1.9 0.2 3.8h47.4c0.2-1.2 0.3-2.5 0.3-3.8z"/>
    <path class="i" d="m36.2 33.5h45.7c1.4 0 2.5-1.1 2.5-2.5v-5.4h-50.7v5.4c0 1.4 1.1 2.5 2.5 2.5z"/>
    <path class="i" d="m59 3.1c-4.4 0-8.5-0.3-12.1 2.2 0 0 3.7 34 3.7 24.3 0-9.7 16.9 9.8 16.9 0 0-9.8 3.6-24.3 3.6-24.3-3.5-2.5-7.7-2.2-12.1-2.2z"/>
    <path class="i" d="m54.1 4.2c0 0 0-0.9 0-1.9 0-1.1 1.1-1.9 2.5-1.9h4.9c1.3 0 2.5 0.8 2.5 1.9v1.9z"/>
    <path class="a" d="m97 102.6h-11.7v-7.8h11.7z"/>
    <path class="j" d="m54.1 5.3c0 0-5.1 0.1-9.4 4.6-4.2 4.4-6.4 11.9-6.4 11.9h6.4c0 0 0.8-9.8 9.4-16.5z"/>
    <path class="k" d="m77 124.7h-5.1v-14.5h16.8l-4.6 11.9c-1.5 2.3-4.3 2.6-7.1 2.6z"/>
    <path class="l" d="m88.7 110.2l-6.5 10.9c-1.5 2.4-4.3 2.7-7.1 2.7h-3.2v0.9h5.1c2.8 0 5.6-0.3 7.1-2.6l4.4-7.5z"/>
    <path class="m" d="m78.3 124.7h-73.6c-2.1 0-3.7-1.7-3.7-3.7v-47.3c0-2 1.6-3.7 3.7-3.7h73.6c2.1 0 3.8 1.7 3.8 3.7v47.3c0 2-1.7 3.7-3.8 3.7z"/>
    <path class="j" d="m51.7 97.3c0 5.7-4.6 10.2-10.2 10.2-5.6 0-10.2-4.5-10.2-10.2 0-5.6 4.6-10.1 10.2-10.1 5.6 0 10.2 4.5 10.2 10.1z"/>
  </g>
</svg>